<?xml version="1.0" standalone="no"?>
<!DOCTYPE svg PUBLIC "-//W3C//DTD SVG 20010904//EN"
 "http://www.w3.org/TR/2001/REC-SVG-20010904/DTD/svg10.dtd">
<svg version="1.0" xmlns="http://www.w3.org/2000/svg"
 width="100.000000pt" height="100.000000pt" viewBox="0 0 100.000000 100.000000"
 preserveAspectRatio="xMidYMid meet">
<metadata>
Created by potrace 1.11, written by Peter Selinger 2001-2013
</metadata>
<g transform="translate(0.000000,100.000000) scale(0.100000,-0.100000)"
fill="#000000" stroke="none">
<path d="M687 888 c-9 -5 -17 -15 -17 -23 0 -12 -138 -135 -177 -159 -7 -4
-23 0 -35 8 -30 22 -131 22 -152 0 -11 -11 -16 -35 -16 -83 l0 -68 -70 0 c-39
0 -76 -5 -82 -11 -6 -6 -12 -47 -13 -92 -1 -75 0 -83 21 -97 13 -8 27 -12 32
-10 4 3 14 2 21 -3 21 -13 5 -40 -24 -40 -44 0 -103 -43 -106 -77 -1 -7 -2
-23 -3 -35 -3 -33 20 -75 51 -95 24 -16 55 -18 238 -19 227 -2 260 4 290 49
50 76 -7 182 -97 179 -21 0 -28 4 -28 19 0 10 3 19 8 20 4 0 17 2 30 3 36 4
44 20 47 97 3 79 -1 92 -50 154 -18 22 -35 45 -38 51 -7 13 168 157 184 152 6
-2 44 -62 84 -134 50 -89 72 -138 70 -157 -2 -14 -31 -61 -66 -104 -34 -43
-66 -83 -71 -90 -7 -8 12 -11 72 -11 108 0 123 12 126 100 1 35 6 74 13 85 15
29 15 31 -18 61 -16 15 -43 54 -61 87 -18 33 -48 85 -66 116 -19 31 -34 67
-34 80 0 42 -31 65 -63 47z"/>
</g>
</svg>
